<svg width="20" height="20" viewBox="0 0 20 20" fill="none" xmlns="http://www.w3.org/2000/svg">
<g clip-path="url(#clip0_3011_4597)">
<path opacity="0.12" d="M9.99935 18.3334C14.6017 18.3334 18.3327 14.6025 18.3327 10.0001C18.3327 5.39771 14.6017 1.66675 9.99935 1.66675C5.39698 1.66675 1.66602 5.39771 1.66602 10.0001C1.66602 14.6025 5.39698 18.3334 9.99935 18.3334Z" fill="#52C4C2"/>
<path d="M18.3327 9.23818V10.0049C18.3317 11.8019 17.7498 13.5504 16.6738 14.9897C15.5978 16.429 14.0854 17.4819 12.3621 17.9914C10.6389 18.501 8.79707 18.4398 7.11141 17.817C5.42575 17.1942 3.98656 16.0433 3.00848 14.5357C2.0304 13.0282 1.56584 11.2449 1.68408 9.45178C1.80232 7.65866 2.49702 5.95179 3.66458 4.58575C4.83214 3.2197 6.41 2.26767 8.16284 1.87164C9.91568 1.47561 11.7496 1.6568 13.391 2.38818M18.3327 3.33341L9.99935 11.6751L7.49935 9.17508" stroke="#52C4C2" stroke-width="1.5" stroke-linecap="round" stroke-linejoin="round"/>
</g>
<defs>
<clipPath id="clip0_3011_4597">
<rect width="20" height="20" fill="white"/>
</clipPath>
</defs>
</svg>
