<svg width="24" height="24" viewBox="0 0 24 24" fill="none" xmlns="http://www.w3.org/2000/svg">
<g clip-path="url(#clip0_2933_167)">
<path d="M0 2.92343C0 2.15121 0.270278 1.51415 0.810811 1.01223C1.35134 0.510296 2.05406 0.259338 2.91892 0.259338C3.76835 0.259338 4.45559 0.506427 4.98069 1.00065C5.52123 1.5103 5.79151 2.17438 5.79151 2.99293C5.79151 3.73424 5.52897 4.35199 5.00386 4.84621C4.46333 5.35586 3.7529 5.61069 2.87259 5.61069H2.84942C1.99999 5.61069 1.31275 5.35586 0.787645 4.84621C0.262541 4.33656 0 3.69562 0 2.92343ZM0.301158 23.1937V7.7188H5.44402V23.1937H0.301158ZM8.29344 23.1937H13.4363V14.5528C13.4363 14.0122 13.4981 13.5952 13.6216 13.3018C13.8378 12.7767 14.166 12.3327 14.6062 11.9698C15.0463 11.6068 15.5984 11.4254 16.2625 11.4254C17.9923 11.4254 18.8571 12.5914 18.8571 14.9234V23.1937H24V14.3211C24 12.0354 23.4595 10.3018 22.3784 9.12034C21.2973 7.93888 19.8687 7.34814 18.0927 7.34814C16.1004 7.34814 14.5483 8.20529 13.4363 9.91957V9.9659H13.4131L13.4363 9.91957V7.7188H8.29344C8.32432 8.213 8.33977 9.74967 8.33977 12.3288C8.33977 14.908 8.32432 18.5296 8.29344 23.1937Z" fill="#0E0E0E"/>
</g>
<defs>
<clipPath id="clip0_2933_167">
<rect width="24" height="22.9344" fill="white" transform="translate(0 0.259338)"/>
</clipPath>
</defs>
</svg>
