<svg width="30" height="25" viewBox="0 0 30 25" fill="none" xmlns="http://www.w3.org/2000/svg">
<g clip-path="url(#clip0_2933_169)">
<path d="M29.5299 3.56823C28.444 4.0494 27.2774 4.37453 26.051 4.52149C27.3021 3.77241 28.2619 2.58368 28.7145 1.1687C27.544 1.86322 26.2474 2.36779 24.8675 2.6383C23.762 1.46267 22.1884 0.726562 20.4457 0.726562C17.1007 0.726562 14.3878 3.43946 14.3878 6.78704C14.388 7.25097 14.4403 7.71341 14.5439 8.16564C9.50693 7.91199 5.04477 5.49949 2.05615 1.8346C1.53599 2.73197 1.23681 3.77241 1.23681 4.88045C1.23681 6.98206 2.3072 8.83797 3.93151 9.92394C2.96948 9.8933 2.02868 9.63334 1.1874 9.16571V9.24373C1.1874 12.179 3.27477 14.6279 6.0475 15.1846C5.52721 15.325 4.99063 15.3958 4.45174 15.3953C4.06906 15.3956 3.6872 15.3599 3.3112 15.2886C4.08241 17.6946 6.31934 19.4477 8.97113 19.4945C6.89673 21.1202 4.28399 22.0891 1.4462 22.0891C0.957204 22.0891 0.474692 22.0605 0 22.0045C2.68174 23.7252 5.86545 24.7266 9.28583 24.7266C20.4314 24.7266 26.5244 15.4954 26.5244 7.48931C26.5244 7.22923 26.5179 6.96648 26.5062 6.70641C27.6897 5.85062 28.7171 4.78551 29.5273 3.57211L29.5299 3.56823Z" fill="#0E0E0E"/>
</g>
<defs>
<clipPath id="clip0_2933_169">
<rect width="30" height="24" fill="white" transform="translate(0 0.726562)"/>
</clipPath>
</defs>
</svg>
