<svg width="12" height="13" viewBox="0 0 12 13" fill="none" xmlns="http://www.w3.org/2000/svg">
<g clip-path="url(#clip0_2721_2796)">
<path d="M2.65142 2.00004L2.65142 11C2.65168 11.0912 2.67472 11.1805 2.71805 11.2584C2.76139 11.3363 2.82337 11.3998 2.89734 11.4421C2.97131 11.4845 3.05446 11.504 3.13784 11.4986C3.22122 11.4932 3.30168 11.4631 3.37055 11.4115L9.32888 6.91154C9.57592 6.72504 9.57592 6.27604 9.32888 6.08904L3.37055 1.58904C3.30182 1.53696 3.22133 1.50641 3.13781 1.50073C3.05429 1.49504 2.97094 1.51443 2.89681 1.5568C2.82268 1.59916 2.76062 1.66288 2.71736 1.74102C2.67409 1.81917 2.65129 1.90875 2.65142 2.00004Z" fill="#0E1C36"/>
</g>
<defs>
<clipPath id="clip0_2721_2796">
<rect width="12" height="11" fill="white" transform="translate(11.3599 0.5) rotate(90)"/>
</clipPath>
</defs>
</svg>
