<svg width="12" height="13" viewBox="0 0 12 13" fill="none" xmlns="http://www.w3.org/2000/svg">
<g clip-path="url(#clip0_2721_2790)">
<path d="M8.88837 2.00004L8.88837 11C8.88811 11.0912 8.86507 11.1805 8.82174 11.2584C8.77841 11.3363 8.71642 11.3998 8.64245 11.4421C8.56848 11.4845 8.48533 11.504 8.40195 11.4986C8.31857 11.4932 8.23812 11.4631 8.16925 11.4115L2.21092 6.91154C1.96387 6.72504 1.96387 6.27604 2.21092 6.08904L8.16925 1.58904C8.23797 1.53696 8.31847 1.50641 8.40199 1.50073C8.48551 1.49504 8.56886 1.51443 8.64298 1.5568C8.71711 1.59916 8.77918 1.66288 8.82244 1.74102C8.8657 1.81917 8.8885 1.90875 8.88837 2.00004Z" fill="#0E1C36"/>
</g>
<defs>
<clipPath id="clip0_2721_2790">
<rect width="12" height="11" fill="white" transform="matrix(-1.19249e-08 1 1 1.19249e-08 0.179932 0.5)"/>
</clipPath>
</defs>
</svg>
